<?xml version="1.0" encoding="UTF-8" standalone="no"?>
<svg xmlns="http://www.w3.org/2000/svg" version="1.1" xmlns:xlink="http://www.w3.org/1999/xlink" xmlns:svgjs="http://svgjs.dev/svgjs" width="308.7612359841165" height="304.915625" viewBox="0 0 2000 1500"><rect width="2000" height="1500" fill="#000000"></rect><g transform="matrix(0.4432624113475177,0,0,0.4432624113475177,556.7375886524824,248.61529224376727)"><svg viewBox="0 0 320 361" data-background-color="#000000" preserveAspectRatio="xMidYMid meet" height="2256" width="2000" xmlns="http://www.w3.org/2000/svg" xmlns:xlink="http://www.w3.org/1999/xlink"><g id="tight-bounds" transform="matrix(1,0,0,1,0,0.49987950000002)"><svg viewBox="0 0 320 360" height="360" width="320"><rect width="320" height="360.00024099999996" fill="url(#784aa8ae-0304-4bc6-94a0-14b19ce89ab4)" mask="url(#58f48dc1-cbd3-4c57-8f4e-b1d7f3f37684)" data-fill-palette-color="tertiary"></rect><g><svg></svg></g><g><svg viewBox="0 0 320 360" height="360" width="320"><g><path transform="translate(-76.07486,-56.3133) scale(4.7215,4.7215)" d="M24.473 37.513l0.604-1.109c4.807-8.829 14.163-14.821 24.923-14.82 10.763 0 20.122 5.995 24.928 14.827l0.604 1.11 1.731-6.637 6.572 1.686-0.562-1.015c-6.478-11.702-18.949-19.628-33.273-19.628-14.324 0-26.794 7.926-33.274 19.628l-0.562 1.014 6.579-1.685zM50 12.927c13.521 0 25.324 7.262 31.785 18.085l-5.238-1.343-1.359 5.212c-5.129-8.559-14.483-14.297-25.188-14.297-10.701 0-20.053 5.735-25.182 14.289l-1.358-5.205-5.245 1.343c6.461-10.823 18.265-18.084 31.785-18.084zM75.527 62.587l-0.604 1.109c-4.807 8.83-14.163 14.821-24.923 14.821-10.763 0-20.122-5.994-24.928-14.827l-0.604-1.109-1.731 6.636-6.573-1.686 0.562 1.015c6.479 11.701 18.949 19.628 33.274 19.628 14.324 0 26.795-7.927 33.274-19.628l0.562-1.014-6.579 1.685zM50 87.174c-13.521 0-25.324-7.262-31.785-18.085l5.237 1.344 1.36-5.212c5.129 8.557 14.483 14.296 25.188 14.296 10.702 0 20.053-5.735 25.183-14.29l1.357 5.205 5.245-1.343c-6.461 10.822-18.264 18.085-31.785 18.085z" fill="url(#784aa8ae-0304-4bc6-94a0-14b19ce89ab4)" fill-rule="nonzero" stroke="none" stroke-width="1" stroke-linecap="butt" stroke-linejoin="miter" stroke-miterlimit="10" stroke-dasharray="" stroke-dashoffset="0" font-family="none" font-weight="none" font-size="none" text-anchor="none" style="mix-blend-mode: normal" data-fill-palette-color="tertiary"></path></g><g transform="matrix(1,0,0,1,120.3838939926221,90)"><svg viewBox="0 0 79.23221201475579 180" height="180" width="79.23221201475579"><g><svg viewBox="0 0 117.7997179125529 267.6177868202217" height="180" width="79.23221201475579"><g transform="matrix(1,0,0,1,0,87.61778682022171)"><svg viewBox="0 0 117.7997179125529 180" height="180" width="117.7997179125529"><g id="textblocktransform"><svg viewBox="0 0 117.7997179125529 180" height="180" width="117.7997179125529" id="textblock"><g><svg viewBox="0 0 117.7997179125529 180" height="180" width="117.7997179125529"><g transform="matrix(1,0,0,1,0,0)"><svg width="117.7997179125529" viewBox="1.8 -34.65 23.2 35.449999999999996" height="180" data-palette-color="url(#ae5757ff-458f-46cc-ab68-f3fae3e97ad4)"><g class="wordmark-text-0" data-fill-palette-color="primary" id="text-0"></g></svg></g></svg></g></svg></g></svg></g><g transform="matrix(1,0,0,1,40.699802538787026,0)"><svg viewBox="0 0 36.40011283497884 45.12410682022171" height="45.12410682022171" width="36.40011283497884"><g><svg xmlns="http://www.w3.org/2000/svg" xmlns:xlink="http://www.w3.org/1999/xlink" version="1.1" x="0" y="0" viewBox="13.7 5 72.6 90" xml:space="preserve" height="45.12410682022171" width="36.40011283497884" class="icon-icon-0" data-fill-palette-color="accent" id="icon-0"></svg></g></svg></g><g></g></svg></g></svg></g></svg></g><defs></defs><mask id="81c04429-a196-4e49-80d3-d174f29c1765"><g id="SvgjsG11708"><svg viewBox="0 0 320 360" height="360" width="320"><g><svg></svg></g><g><svg viewBox="0 0 320 360" height="360" width="320"><g><path transform="translate(-76.07486,-56.3133) scale(4.7215,4.7215)" d="M24.473 37.513l0.604-1.109c4.807-8.829 14.163-14.821 24.923-14.82 10.763 0 20.122 5.995 24.928 14.827l0.604 1.11 1.731-6.637 6.572 1.686-0.562-1.015c-6.478-11.702-18.949-19.628-33.273-19.628-14.324 0-26.794 7.926-33.274 19.628l-0.562 1.014 6.579-1.685zM50 12.927c13.521 0 25.324 7.262 31.785 18.085l-5.238-1.343-1.359 5.212c-5.129-8.559-14.483-14.297-25.188-14.297-10.701 0-20.053 5.735-25.182 14.289l-1.358-5.205-5.245 1.343c6.461-10.823 18.265-18.084 31.785-18.084zM75.527 62.587l-0.604 1.109c-4.807 8.83-14.163 14.821-24.923 14.821-10.763 0-20.122-5.994-24.928-14.827l-0.604-1.109-1.731 6.636-6.573-1.686 0.562 1.015c6.479 11.701 18.949 19.628 33.274 19.628 14.324 0 26.795-7.927 33.274-19.628l0.562-1.014-6.579 1.685zM50 87.174c-13.521 0-25.324-7.262-31.785-18.085l5.237 1.344 1.36-5.212c5.129 8.557 14.483 14.296 25.188 14.296 10.702 0 20.053-5.735 25.183-14.29l1.357 5.205 5.245-1.343c-6.461 10.822-18.264 18.085-31.785 18.085z" fill="black" fill-rule="nonzero" stroke="none" stroke-width="1" stroke-linecap="butt" stroke-linejoin="miter" stroke-miterlimit="10" stroke-dasharray="" stroke-dashoffset="0" font-family="none" font-weight="none" font-size="none" text-anchor="none" style="mix-blend-mode: normal"></path></g><g transform="matrix(1,0,0,1,120.3838939926221,90)"><svg viewBox="0 0 79.23221201475579 180" height="180" width="79.23221201475579"><g><svg viewBox="0 0 117.7997179125529 267.6177868202217" height="180" width="79.23221201475579"><g transform="matrix(1,0,0,1,0,87.61778682022171)"><svg viewBox="0 0 117.7997179125529 180" height="180" width="117.7997179125529"><g id="SvgjsG11707"><svg viewBox="0 0 117.7997179125529 180" height="180" width="117.7997179125529" id="SvgjsSvg11706"><g><svg viewBox="0 0 117.7997179125529 180" height="180" width="117.7997179125529"><g transform="matrix(1,0,0,1,0,0)"><svg width="117.7997179125529" viewBox="1.8 -34.65 23.2 35.449999999999996" height="180" data-palette-color="url(#ae5757ff-458f-46cc-ab68-f3fae3e97ad4)"><g class="wordmark-text-0" data-fill-palette-color="primary" id="SvgjsG11705"><path d="M25-34.65L25-10Q25-6.9 23.7-4.48 22.4-2.05 19.8-0.63 17.2 0.8 13.4 0.8L13.4 0.8Q7.7 0.8 4.75-2.15 1.8-5.1 1.8-10L1.8-10 1.8-34.65 9.65-34.65 9.65-10.35Q9.65-7.65 10.53-6.35 11.4-5.05 13.4-5.05L13.4-5.05Q15.4-5.05 16.28-6.35 17.15-7.65 17.15-10.35L17.15-10.35 17.15-34.65 25-34.65Z" fill="white"></path></g></svg></g></svg></g></svg></g></svg></g><g transform="matrix(1,0,0,1,40.699802538787026,0)"><svg viewBox="0 0 36.40011283497884 45.12410682022171" height="45.12410682022171" width="36.40011283497884"><g><svg xmlns="http://www.w3.org/2000/svg" xmlns:xlink="http://www.w3.org/1999/xlink" version="1.1" x="0" y="0" viewBox="13.7 5 72.6 90" xml:space="preserve" height="45.12410682022171" width="36.40011283497884" class="icon-icon-0" data-fill-palette-color="accent" id="SvgjsSvg11704"><path class="" d="M50 5C30 5 13.7 11.7 13.7 20V80C13.7 88.3 29.9 95 50 95S86.3 88.3 86.3 80V20C86.3 11.7 70 5 50 5M50 12.5C67.6 12.5 77.5 17.9 78.7 20.2 78.3 22.8 68.2 27.5 50 27.5S21.7 22.8 21.3 20.2C22.5 17.9 32.4 12.5 50 12.5M78.8 79.8C77.6 82.1 67.7 87.5 50 87.5S22.4 82.1 21.2 79.8V76.9C27.5 80.6 38.8 82.5 50 82.5S72.5 80.6 78.8 76.9zM78.8 70C78.8 72.5 68.7 77.5 50 77.5S21.2 72.5 21.2 70V36.9C27.5 40.6 38.8 42.5 50 42.5S72.5 40.6 78.8 36.9zM78.8 30C78.8 32.5 68.7 37.5 50 37.5S21.2 32.5 21.2 30V26.9C27.5 30.6 38.8 32.5 50 32.5S72.5 30.6 78.8 26.9z" fill="black"></path><path class="" d="M44.5 57.8C44.8 56.9 45 56 45 55 45 50.9 41.6 47.5 37.5 47.5S30 50.9 30 55C30 56 30.2 56.9 30.5 57.8 27.4 58.6 25 61.5 25 65 25 69.1 28.4 72.5 32.5 72.5 34.4 72.5 36.2 71.8 37.5 70.6 38.8 71.8 40.6 72.5 42.5 72.5 46.6 72.5 50 69.1 50 65 50 61.5 47.6 58.6 44.5 57.8M32.5 67.5C31.1 67.5 30 66.4 30 65S31.1 62.5 32.5 62.5 35 63.6 35 65 33.9 67.5 32.5 67.5M37.5 57.5C36.1 57.5 35 56.4 35 55S36.1 52.5 37.5 52.5 40 53.6 40 55 38.9 57.5 37.5 57.5M42.5 67.5C41.1 67.5 40 66.4 40 65S41.1 62.5 42.5 62.5 45 63.6 45 65 43.9 67.5 42.5 67.5" fill="black"></path><path class="" d="M63.8 72.5C67.9 72.5 71.3 69.1 71.3 65S67.9 57.5 63.8 57.5 56.3 60.9 56.3 65 59.6 72.5 63.8 72.5M63.8 62.5C65.2 62.5 66.3 63.6 66.3 65S65.2 67.5 63.8 67.5 61.3 66.4 61.3 65 62.4 62.5 63.8 62.5" fill="black"></path><path class="" d="M32.5 22.5H37.5C38.9 22.5 40 21.4 40 20S38.9 17.5 37.5 17.5H32.5C31.1 17.5 30 18.6 30 20S31.1 22.5 32.5 22.5" fill="black"></path></svg></g></svg></g><g></g></svg></g></svg></g></svg></g><defs><mask></mask></defs></svg><rect width="320" height="360" fill="black" stroke="none" visibility="hidden"></rect></g></mask><linearGradient x1="0" x2="1" y1="0.548" y2="0.55" id="ae5757ff-458f-46cc-ab68-f3fae3e97ad4"><stop stop-color="#ff6cab" offset="0"></stop><stop stop-color="#7366ff" offset="1"></stop></linearGradient><rect width="320" height="360.00024099999996" fill="url(#ae5757ff-458f-46cc-ab68-f3fae3e97ad4)" mask="url(#81c04429-a196-4e49-80d3-d174f29c1765)" data-fill-palette-color="primary"></rect><mask id="43393b7f-4417-4fbb-b8a6-4cb85146206e"><g id="SvgjsG11729"><svg viewBox="0 0 320 360" height="360" width="320"><g><svg></svg></g><g><svg viewBox="0 0 320 360" height="360" width="320"><g><path transform="translate(-76.07486,-56.3133) scale(4.7215,4.7215)" d="M24.473 37.513l0.604-1.109c4.807-8.829 14.163-14.821 24.923-14.82 10.763 0 20.122 5.995 24.928 14.827l0.604 1.11 1.731-6.637 6.572 1.686-0.562-1.015c-6.478-11.702-18.949-19.628-33.273-19.628-14.324 0-26.794 7.926-33.274 19.628l-0.562 1.014 6.579-1.685zM50 12.927c13.521 0 25.324 7.262 31.785 18.085l-5.238-1.343-1.359 5.212c-5.129-8.559-14.483-14.297-25.188-14.297-10.701 0-20.053 5.735-25.182 14.289l-1.358-5.205-5.245 1.343c6.461-10.823 18.265-18.084 31.785-18.084zM75.527 62.587l-0.604 1.109c-4.807 8.83-14.163 14.821-24.923 14.821-10.763 0-20.122-5.994-24.928-14.827l-0.604-1.109-1.731 6.636-6.573-1.686 0.562 1.015c6.479 11.701 18.949 19.628 33.274 19.628 14.324 0 26.795-7.927 33.274-19.628l0.562-1.014-6.579 1.685zM50 87.174c-13.521 0-25.324-7.262-31.785-18.085l5.237 1.344 1.36-5.212c5.129 8.557 14.483 14.296 25.188 14.296 10.702 0 20.053-5.735 25.183-14.29l1.357 5.205 5.245-1.343c-6.461 10.822-18.264 18.085-31.785 18.085z" fill="black" fill-rule="nonzero" stroke="none" stroke-width="1" stroke-linecap="butt" stroke-linejoin="miter" stroke-miterlimit="10" stroke-dasharray="" stroke-dashoffset="0" font-family="none" font-weight="none" font-size="none" text-anchor="none" style="mix-blend-mode: normal"></path></g><g transform="matrix(1,0,0,1,120.3838939926221,90)"><svg viewBox="0 0 79.23221201475579 180" height="180" width="79.23221201475579"><g><svg viewBox="0 0 117.7997179125529 267.6177868202217" height="180" width="79.23221201475579"><g transform="matrix(1,0,0,1,0,87.61778682022171)"><svg viewBox="0 0 117.7997179125529 180" height="180" width="117.7997179125529"><g id="SvgjsG11728"><svg viewBox="0 0 117.7997179125529 180" height="180" width="117.7997179125529" id="SvgjsSvg11727"><g><svg viewBox="0 0 117.7997179125529 180" height="180" width="117.7997179125529"><g transform="matrix(1,0,0,1,0,0)"><svg width="117.7997179125529" viewBox="1.8 -34.65 23.2 35.449999999999996" height="180" data-palette-color="url(#ae5757ff-458f-46cc-ab68-f3fae3e97ad4)"><g class="wordmark-text-0" data-fill-palette-color="primary" id="SvgjsG11726"></g></svg></g></svg></g></svg></g></svg></g><g transform="matrix(1,0,0,1,40.699802538787026,0)"><svg viewBox="0 0 36.40011283497884 45.12410682022171" height="45.12410682022171" width="36.40011283497884"><g><svg xmlns="http://www.w3.org/2000/svg" xmlns:xlink="http://www.w3.org/1999/xlink" version="1.1" x="0" y="0" viewBox="13.7 5 72.6 90" xml:space="preserve" height="45.12410682022171" width="36.40011283497884" class="icon-icon-0" data-fill-palette-color="accent" id="SvgjsSvg11725"><path class="" d="M50 5C30 5 13.7 11.7 13.7 20V80C13.7 88.3 29.9 95 50 95S86.3 88.3 86.3 80V20C86.3 11.7 70 5 50 5M50 12.5C67.6 12.5 77.5 17.9 78.7 20.2 78.3 22.8 68.2 27.5 50 27.5S21.7 22.8 21.3 20.2C22.5 17.9 32.4 12.5 50 12.5M78.8 79.8C77.6 82.1 67.7 87.5 50 87.5S22.4 82.1 21.2 79.8V76.9C27.5 80.6 38.8 82.5 50 82.5S72.5 80.6 78.8 76.9zM78.8 70C78.8 72.5 68.7 77.5 50 77.5S21.2 72.5 21.2 70V36.9C27.5 40.6 38.8 42.5 50 42.5S72.5 40.6 78.8 36.9zM78.8 30C78.8 32.5 68.7 37.5 50 37.5S21.2 32.5 21.2 30V26.9C27.5 30.6 38.8 32.5 50 32.5S72.5 30.6 78.8 26.9z" fill="white"></path><path class="" d="M44.5 57.8C44.8 56.9 45 56 45 55 45 50.9 41.6 47.5 37.5 47.5S30 50.9 30 55C30 56 30.2 56.9 30.5 57.8 27.4 58.6 25 61.5 25 65 25 69.1 28.4 72.5 32.5 72.5 34.4 72.5 36.2 71.8 37.5 70.6 38.8 71.8 40.6 72.5 42.5 72.5 46.6 72.5 50 69.1 50 65 50 61.5 47.6 58.6 44.5 57.8M32.5 67.5C31.1 67.5 30 66.4 30 65S31.1 62.5 32.5 62.5 35 63.6 35 65 33.9 67.5 32.5 67.5M37.5 57.5C36.1 57.5 35 56.4 35 55S36.1 52.5 37.5 52.5 40 53.6 40 55 38.9 57.5 37.5 57.5M42.5 67.5C41.1 67.5 40 66.4 40 65S41.1 62.5 42.5 62.5 45 63.6 45 65 43.9 67.5 42.5 67.5" fill="white"></path><path class="" d="M63.8 72.5C67.9 72.5 71.3 69.1 71.3 65S67.9 57.5 63.8 57.5 56.3 60.9 56.3 65 59.6 72.5 63.8 72.5M63.8 62.5C65.2 62.5 66.3 63.6 66.3 65S65.2 67.5 63.8 67.5 61.3 66.4 61.3 65 62.4 62.5 63.8 62.5" fill="white"></path><path class="" d="M32.5 22.5H37.5C38.9 22.5 40 21.4 40 20S38.9 17.5 37.5 17.5H32.5C31.1 17.5 30 18.6 30 20S31.1 22.5 32.5 22.5" fill="white"></path></svg></g></svg></g><g></g></svg></g></svg></g></svg></g><defs><mask></mask></defs><mask><g id="SvgjsG11724"><svg viewBox="0 0 320 360" height="360" width="320"><g><svg></svg></g><g><svg viewBox="0 0 320 360" height="360" width="320"><g><path transform="translate(-76.07486,-56.3133) scale(4.7215,4.7215)" d="M24.473 37.513l0.604-1.109c4.807-8.829 14.163-14.821 24.923-14.82 10.763 0 20.122 5.995 24.928 14.827l0.604 1.11 1.731-6.637 6.572 1.686-0.562-1.015c-6.478-11.702-18.949-19.628-33.273-19.628-14.324 0-26.794 7.926-33.274 19.628l-0.562 1.014 6.579-1.685zM50 12.927c13.521 0 25.324 7.262 31.785 18.085l-5.238-1.343-1.359 5.212c-5.129-8.559-14.483-14.297-25.188-14.297-10.701 0-20.053 5.735-25.182 14.289l-1.358-5.205-5.245 1.343c6.461-10.823 18.265-18.084 31.785-18.084zM75.527 62.587l-0.604 1.109c-4.807 8.83-14.163 14.821-24.923 14.821-10.763 0-20.122-5.994-24.928-14.827l-0.604-1.109-1.731 6.636-6.573-1.686 0.562 1.015c6.479 11.701 18.949 19.628 33.274 19.628 14.324 0 26.795-7.927 33.274-19.628l0.562-1.014-6.579 1.685zM50 87.174c-13.521 0-25.324-7.262-31.785-18.085l5.237 1.344 1.36-5.212c5.129 8.557 14.483 14.296 25.188 14.296 10.702 0 20.053-5.735 25.183-14.29l1.357 5.205 5.245-1.343c-6.461 10.822-18.264 18.085-31.785 18.085z" fill="black" fill-rule="nonzero" stroke="none" stroke-width="1" stroke-linecap="butt" stroke-linejoin="miter" stroke-miterlimit="10" stroke-dasharray="" stroke-dashoffset="0" font-family="none" font-weight="none" font-size="none" text-anchor="none" style="mix-blend-mode: normal"></path></g><g transform="matrix(1,0,0,1,120.3838939926221,90)"><svg viewBox="0 0 79.23221201475579 180" height="180" width="79.23221201475579"><g><svg viewBox="0 0 117.7997179125529 267.6177868202217" height="180" width="79.23221201475579"><g transform="matrix(1,0,0,1,0,87.61778682022171)"><svg viewBox="0 0 117.7997179125529 180" height="180" width="117.7997179125529"><g id="SvgjsG11723"><svg viewBox="0 0 117.7997179125529 180" height="180" width="117.7997179125529" id="SvgjsSvg11722"><g><svg viewBox="0 0 117.7997179125529 180" height="180" width="117.7997179125529"><g transform="matrix(1,0,0,1,0,0)"><svg width="117.7997179125529" viewBox="1.8 -34.65 23.2 35.449999999999996" height="180" data-palette-color="url(#ae5757ff-458f-46cc-ab68-f3fae3e97ad4)"><g class="wordmark-text-0" data-fill-palette-color="primary" id="SvgjsG11721"><path d="M25-34.65L25-10Q25-6.9 23.7-4.48 22.4-2.05 19.8-0.63 17.2 0.8 13.4 0.8L13.4 0.8Q7.7 0.8 4.75-2.15 1.8-5.1 1.8-10L1.8-10 1.8-34.65 9.65-34.65 9.65-10.35Q9.65-7.65 10.53-6.35 11.4-5.05 13.4-5.05L13.4-5.05Q15.4-5.05 16.28-6.35 17.15-7.65 17.15-10.35L17.15-10.35 17.15-34.65 25-34.65Z" fill="black"></path></g></svg></g></svg></g></svg></g></svg></g><g transform="matrix(1,0,0,1,40.699802538787026,0)"><svg viewBox="0 0 36.40011283497884 45.12410682022171" height="45.12410682022171" width="36.40011283497884"><g><svg xmlns="http://www.w3.org/2000/svg" xmlns:xlink="http://www.w3.org/1999/xlink" version="1.1" x="0" y="0" viewBox="13.7 5 72.6 90" xml:space="preserve" height="45.12410682022171" width="36.40011283497884" class="icon-icon-0" data-fill-palette-color="accent" id="SvgjsSvg11720"><path class="" d="M50 5C30 5 13.7 11.7 13.7 20V80C13.7 88.3 29.9 95 50 95S86.3 88.3 86.3 80V20C86.3 11.7 70 5 50 5M50 12.5C67.6 12.5 77.5 17.9 78.7 20.2 78.3 22.8 68.2 27.5 50 27.5S21.7 22.8 21.3 20.2C22.5 17.9 32.4 12.5 50 12.5M78.8 79.8C77.6 82.1 67.7 87.5 50 87.5S22.4 82.1 21.2 79.8V76.9C27.5 80.6 38.8 82.5 50 82.5S72.5 80.6 78.8 76.9zM78.8 70C78.8 72.5 68.7 77.5 50 77.5S21.2 72.5 21.2 70V36.9C27.5 40.6 38.8 42.5 50 42.5S72.5 40.6 78.8 36.9zM78.8 30C78.8 32.5 68.7 37.5 50 37.5S21.2 32.5 21.2 30V26.9C27.5 30.6 38.8 32.5 50 32.5S72.5 30.6 78.8 26.9z" fill="black"></path><path class="" d="M44.5 57.8C44.8 56.9 45 56 45 55 45 50.9 41.6 47.5 37.5 47.5S30 50.9 30 55C30 56 30.2 56.9 30.5 57.8 27.4 58.6 25 61.5 25 65 25 69.1 28.4 72.5 32.5 72.5 34.4 72.5 36.2 71.8 37.5 70.6 38.8 71.8 40.6 72.5 42.5 72.5 46.6 72.5 50 69.1 50 65 50 61.5 47.6 58.6 44.5 57.8M32.5 67.5C31.1 67.5 30 66.4 30 65S31.1 62.5 32.5 62.5 35 63.6 35 65 33.9 67.5 32.5 67.5M37.5 57.5C36.1 57.5 35 56.4 35 55S36.1 52.5 37.5 52.5 40 53.6 40 55 38.9 57.5 37.5 57.5M42.5 67.5C41.1 67.5 40 66.4 40 65S41.1 62.5 42.5 62.5 45 63.6 45 65 43.9 67.5 42.5 67.5" fill="black"></path><path class="" d="M63.8 72.5C67.9 72.5 71.3 69.1 71.3 65S67.9 57.5 63.8 57.5 56.3 60.9 56.3 65 59.6 72.5 63.8 72.5M63.8 62.5C65.2 62.5 66.3 63.6 66.3 65S65.2 67.5 63.8 67.5 61.3 66.4 61.3 65 62.4 62.5 63.8 62.5" fill="black"></path><path class="" d="M32.5 22.5H37.5C38.9 22.5 40 21.4 40 20S38.9 17.5 37.5 17.5H32.5C31.1 17.5 30 18.6 30 20S31.1 22.5 32.5 22.5" fill="black"></path></svg></g></svg></g><g></g></svg></g></svg></g></svg></g><defs><mask></mask></defs></svg><rect width="320" height="360" fill="black" stroke="none" visibility="hidden"></rect></g></mask></svg><rect width="320" height="360" fill="black" stroke="none" visibility="hidden"></rect></g></mask><linearGradient x1="0" x2="1" y1="0.548" y2="0.55" id="1baccecd-6a2a-42a5-b87c-2f550e805a89"><stop stop-color="#ff6cab" offset="0"></stop><stop stop-color="#7366ff" offset="1"></stop></linearGradient><rect width="320" height="360.00024099999996" fill="url(#1baccecd-6a2a-42a5-b87c-2f550e805a89)" mask="url(#43393b7f-4417-4fbb-b8a6-4cb85146206e)" data-fill-palette-color="accent"></rect><mask id="58f48dc1-cbd3-4c57-8f4e-b1d7f3f37684"><g id="SvgjsG11749"><svg viewBox="0 0 320 360" height="360" width="320"><g><svg></svg></g><g><svg viewBox="0 0 320 360" height="360" width="320"><g><path transform="translate(-76.07486,-56.3133) scale(4.7215,4.7215)" d="M24.473 37.513l0.604-1.109c4.807-8.829 14.163-14.821 24.923-14.82 10.763 0 20.122 5.995 24.928 14.827l0.604 1.11 1.731-6.637 6.572 1.686-0.562-1.015c-6.478-11.702-18.949-19.628-33.273-19.628-14.324 0-26.794 7.926-33.274 19.628l-0.562 1.014 6.579-1.685zM50 12.927c13.521 0 25.324 7.262 31.785 18.085l-5.238-1.343-1.359 5.212c-5.129-8.559-14.483-14.297-25.188-14.297-10.701 0-20.053 5.735-25.182 14.289l-1.358-5.205-5.245 1.343c6.461-10.823 18.265-18.084 31.785-18.084zM75.527 62.587l-0.604 1.109c-4.807 8.83-14.163 14.821-24.923 14.821-10.763 0-20.122-5.994-24.928-14.827l-0.604-1.109-1.731 6.636-6.573-1.686 0.562 1.015c6.479 11.701 18.949 19.628 33.274 19.628 14.324 0 26.795-7.927 33.274-19.628l0.562-1.014-6.579 1.685zM50 87.174c-13.521 0-25.324-7.262-31.785-18.085l5.237 1.344 1.36-5.212c5.129 8.557 14.483 14.296 25.188 14.296 10.702 0 20.053-5.735 25.183-14.29l1.357 5.205 5.245-1.343c-6.461 10.822-18.264 18.085-31.785 18.085z" fill="white" fill-rule="nonzero" stroke="none" stroke-width="1" stroke-linecap="butt" stroke-linejoin="miter" stroke-miterlimit="10" stroke-dasharray="" stroke-dashoffset="0" font-family="none" font-weight="none" font-size="none" text-anchor="none" style="mix-blend-mode: normal"></path></g><g transform="matrix(1,0,0,1,120.3838939926221,90)"><svg viewBox="0 0 79.23221201475579 180" height="180" width="79.23221201475579"><g><svg viewBox="0 0 117.7997179125529 267.6177868202217" height="180" width="79.23221201475579"><g transform="matrix(1,0,0,1,0,87.61778682022171)"><svg viewBox="0 0 117.7997179125529 180" height="180" width="117.7997179125529"><g id="SvgjsG11748"><svg viewBox="0 0 117.7997179125529 180" height="180" width="117.7997179125529" id="SvgjsSvg11747"><g><svg viewBox="0 0 117.7997179125529 180" height="180" width="117.7997179125529"><g transform="matrix(1,0,0,1,0,0)"><svg width="117.7997179125529" viewBox="1.8 -34.65 23.2 35.449999999999996" height="180" data-palette-color="url(#ae5757ff-458f-46cc-ab68-f3fae3e97ad4)"><g class="wordmark-text-0" data-fill-palette-color="primary" id="SvgjsG11746"></g></svg></g></svg></g></svg></g></svg></g><g transform="matrix(1,0,0,1,40.699802538787026,0)"><svg viewBox="0 0 36.40011283497884 45.12410682022171" height="45.12410682022171" width="36.40011283497884"><g><svg xmlns="http://www.w3.org/2000/svg" xmlns:xlink="http://www.w3.org/1999/xlink" version="1.1" x="0" y="0" viewBox="13.7 5 72.6 90" xml:space="preserve" height="45.12410682022171" width="36.40011283497884" class="icon-icon-0" data-fill-palette-color="accent" id="SvgjsSvg11745"></svg></g></svg></g><g></g></svg></g></svg></g></svg></g><defs><mask></mask></defs><mask><g id="SvgjsG11744"><svg viewBox="0 0 320 360" height="360" width="320"><g><svg></svg></g><g><svg viewBox="0 0 320 360" height="360" width="320"><g><path transform="translate(-76.07486,-56.3133) scale(4.7215,4.7215)" d="M24.473 37.513l0.604-1.109c4.807-8.829 14.163-14.821 24.923-14.82 10.763 0 20.122 5.995 24.928 14.827l0.604 1.11 1.731-6.637 6.572 1.686-0.562-1.015c-6.478-11.702-18.949-19.628-33.273-19.628-14.324 0-26.794 7.926-33.274 19.628l-0.562 1.014 6.579-1.685zM50 12.927c13.521 0 25.324 7.262 31.785 18.085l-5.238-1.343-1.359 5.212c-5.129-8.559-14.483-14.297-25.188-14.297-10.701 0-20.053 5.735-25.182 14.289l-1.358-5.205-5.245 1.343c6.461-10.823 18.265-18.084 31.785-18.084zM75.527 62.587l-0.604 1.109c-4.807 8.83-14.163 14.821-24.923 14.821-10.763 0-20.122-5.994-24.928-14.827l-0.604-1.109-1.731 6.636-6.573-1.686 0.562 1.015c6.479 11.701 18.949 19.628 33.274 19.628 14.324 0 26.795-7.927 33.274-19.628l0.562-1.014-6.579 1.685zM50 87.174c-13.521 0-25.324-7.262-31.785-18.085l5.237 1.344 1.36-5.212c5.129 8.557 14.483 14.296 25.188 14.296 10.702 0 20.053-5.735 25.183-14.29l1.357 5.205 5.245-1.343c-6.461 10.822-18.264 18.085-31.785 18.085z" fill="black" fill-rule="nonzero" stroke="none" stroke-width="1" stroke-linecap="butt" stroke-linejoin="miter" stroke-miterlimit="10" stroke-dasharray="" stroke-dashoffset="0" font-family="none" font-weight="none" font-size="none" text-anchor="none" style="mix-blend-mode: normal"></path></g><g transform="matrix(1,0,0,1,120.3838939926221,90)"><svg viewBox="0 0 79.23221201475579 180" height="180" width="79.23221201475579"><g><svg viewBox="0 0 117.7997179125529 267.6177868202217" height="180" width="79.23221201475579"><g transform="matrix(1,0,0,1,0,87.61778682022171)"><svg viewBox="0 0 117.7997179125529 180" height="180" width="117.7997179125529"><g id="SvgjsG11743"><svg viewBox="0 0 117.7997179125529 180" height="180" width="117.7997179125529" id="SvgjsSvg11742"><g><svg viewBox="0 0 117.7997179125529 180" height="180" width="117.7997179125529"><g transform="matrix(1,0,0,1,0,0)"><svg width="117.7997179125529" viewBox="1.8 -34.65 23.2 35.449999999999996" height="180" data-palette-color="url(#ae5757ff-458f-46cc-ab68-f3fae3e97ad4)"><g class="wordmark-text-0" data-fill-palette-color="primary" id="SvgjsG11741"><path d="M25-34.65L25-10Q25-6.9 23.7-4.48 22.4-2.05 19.8-0.63 17.2 0.8 13.4 0.8L13.4 0.8Q7.7 0.8 4.75-2.15 1.8-5.1 1.8-10L1.8-10 1.8-34.65 9.65-34.65 9.65-10.35Q9.65-7.65 10.53-6.35 11.4-5.05 13.4-5.05L13.4-5.05Q15.4-5.05 16.28-6.35 17.15-7.65 17.15-10.35L17.15-10.35 17.15-34.65 25-34.65Z" fill="black"></path></g></svg></g></svg></g></svg></g></svg></g><g transform="matrix(1,0,0,1,40.699802538787026,0)"><svg viewBox="0 0 36.40011283497884 45.12410682022171" height="45.12410682022171" width="36.40011283497884"><g><svg xmlns="http://www.w3.org/2000/svg" xmlns:xlink="http://www.w3.org/1999/xlink" version="1.1" x="0" y="0" viewBox="13.7 5 72.6 90" xml:space="preserve" height="45.12410682022171" width="36.40011283497884" class="icon-icon-0" data-fill-palette-color="accent" id="SvgjsSvg11740"><path class="" d="M50 5C30 5 13.7 11.7 13.7 20V80C13.7 88.3 29.9 95 50 95S86.3 88.3 86.3 80V20C86.3 11.7 70 5 50 5M50 12.5C67.6 12.5 77.5 17.9 78.7 20.2 78.3 22.8 68.2 27.5 50 27.5S21.7 22.8 21.3 20.2C22.5 17.9 32.4 12.5 50 12.5M78.8 79.8C77.6 82.1 67.7 87.5 50 87.5S22.4 82.1 21.2 79.8V76.9C27.5 80.6 38.8 82.5 50 82.5S72.5 80.6 78.8 76.9zM78.8 70C78.8 72.5 68.7 77.5 50 77.5S21.2 72.5 21.2 70V36.9C27.5 40.6 38.8 42.5 50 42.5S72.5 40.6 78.8 36.9zM78.8 30C78.8 32.5 68.7 37.5 50 37.5S21.2 32.5 21.2 30V26.9C27.5 30.6 38.8 32.5 50 32.5S72.5 30.6 78.8 26.9z" fill="black"></path><path class="" d="M44.5 57.8C44.8 56.9 45 56 45 55 45 50.9 41.6 47.5 37.5 47.5S30 50.9 30 55C30 56 30.2 56.9 30.5 57.8 27.4 58.6 25 61.5 25 65 25 69.1 28.4 72.5 32.5 72.5 34.4 72.5 36.2 71.8 37.5 70.6 38.8 71.8 40.6 72.5 42.5 72.5 46.6 72.5 50 69.1 50 65 50 61.5 47.6 58.6 44.5 57.8M32.5 67.5C31.1 67.5 30 66.4 30 65S31.1 62.5 32.5 62.5 35 63.6 35 65 33.9 67.5 32.5 67.5M37.5 57.5C36.1 57.5 35 56.4 35 55S36.1 52.5 37.5 52.5 40 53.6 40 55 38.9 57.5 37.5 57.5M42.5 67.5C41.1 67.5 40 66.4 40 65S41.1 62.5 42.5 62.5 45 63.6 45 65 43.9 67.5 42.5 67.5" fill="black"></path><path class="" d="M63.8 72.5C67.9 72.5 71.3 69.1 71.3 65S67.9 57.5 63.8 57.5 56.3 60.9 56.3 65 59.6 72.5 63.8 72.5M63.8 62.5C65.2 62.5 66.3 63.6 66.3 65S65.2 67.5 63.8 67.5 61.3 66.4 61.3 65 62.4 62.5 63.8 62.5" fill="black"></path><path class="" d="M32.5 22.5H37.5C38.9 22.5 40 21.4 40 20S38.9 17.5 37.5 17.5H32.5C31.1 17.5 30 18.6 30 20S31.1 22.5 32.5 22.5" fill="black"></path></svg></g></svg></g><g></g></svg></g></svg></g></svg></g><defs><mask></mask></defs></svg><rect width="320" height="360" fill="black" stroke="none" visibility="hidden"></rect></g></mask><mask><g id="SvgjsG11739"><svg viewBox="0 0 320 360" height="360" width="320"><g><svg></svg></g><g><svg viewBox="0 0 320 360" height="360" width="320"><g><path transform="translate(-76.07486,-56.3133) scale(4.7215,4.7215)" d="M24.473 37.513l0.604-1.109c4.807-8.829 14.163-14.821 24.923-14.82 10.763 0 20.122 5.995 24.928 14.827l0.604 1.11 1.731-6.637 6.572 1.686-0.562-1.015c-6.478-11.702-18.949-19.628-33.273-19.628-14.324 0-26.794 7.926-33.274 19.628l-0.562 1.014 6.579-1.685zM50 12.927c13.521 0 25.324 7.262 31.785 18.085l-5.238-1.343-1.359 5.212c-5.129-8.559-14.483-14.297-25.188-14.297-10.701 0-20.053 5.735-25.182 14.289l-1.358-5.205-5.245 1.343c6.461-10.823 18.265-18.084 31.785-18.084zM75.527 62.587l-0.604 1.109c-4.807 8.83-14.163 14.821-24.923 14.821-10.763 0-20.122-5.994-24.928-14.827l-0.604-1.109-1.731 6.636-6.573-1.686 0.562 1.015c6.479 11.701 18.949 19.628 33.274 19.628 14.324 0 26.795-7.927 33.274-19.628l0.562-1.014-6.579 1.685zM50 87.174c-13.521 0-25.324-7.262-31.785-18.085l5.237 1.344 1.36-5.212c5.129 8.557 14.483 14.296 25.188 14.296 10.702 0 20.053-5.735 25.183-14.29l1.357 5.205 5.245-1.343c-6.461 10.822-18.264 18.085-31.785 18.085z" fill="black" fill-rule="nonzero" stroke="none" stroke-width="1" stroke-linecap="butt" stroke-linejoin="miter" stroke-miterlimit="10" stroke-dasharray="" stroke-dashoffset="0" font-family="none" font-weight="none" font-size="none" text-anchor="none" style="mix-blend-mode: normal"></path></g><g transform="matrix(1,0,0,1,120.3838939926221,90)"><svg viewBox="0 0 79.23221201475579 180" height="180" width="79.23221201475579"><g><svg viewBox="0 0 117.7997179125529 267.6177868202217" height="180" width="79.23221201475579"><g transform="matrix(1,0,0,1,0,87.61778682022171)"><svg viewBox="0 0 117.7997179125529 180" height="180" width="117.7997179125529"><g id="SvgjsG11738"><svg viewBox="0 0 117.7997179125529 180" height="180" width="117.7997179125529" id="SvgjsSvg11737"><g><svg viewBox="0 0 117.7997179125529 180" height="180" width="117.7997179125529"><g transform="matrix(1,0,0,1,0,0)"><svg width="117.7997179125529" viewBox="1.8 -34.65 23.2 35.449999999999996" height="180" data-palette-color="url(#ae5757ff-458f-46cc-ab68-f3fae3e97ad4)"><g class="wordmark-text-0" data-fill-palette-color="primary" id="SvgjsG11736"></g></svg></g></svg></g></svg></g></svg></g><g transform="matrix(1,0,0,1,40.699802538787026,0)"><svg viewBox="0 0 36.40011283497884 45.12410682022171" height="45.12410682022171" width="36.40011283497884"><g><svg xmlns="http://www.w3.org/2000/svg" xmlns:xlink="http://www.w3.org/1999/xlink" version="1.1" x="0" y="0" viewBox="13.7 5 72.6 90" xml:space="preserve" height="45.12410682022171" width="36.40011283497884" class="icon-icon-0" data-fill-palette-color="accent" id="SvgjsSvg11735"><path class="" d="M50 5C30 5 13.7 11.7 13.7 20V80C13.7 88.3 29.9 95 50 95S86.3 88.3 86.3 80V20C86.3 11.7 70 5 50 5M50 12.5C67.6 12.5 77.5 17.9 78.7 20.2 78.3 22.8 68.2 27.5 50 27.5S21.7 22.8 21.3 20.2C22.5 17.9 32.4 12.5 50 12.5M78.8 79.8C77.6 82.1 67.7 87.5 50 87.5S22.4 82.1 21.2 79.8V76.9C27.5 80.6 38.8 82.5 50 82.5S72.5 80.6 78.8 76.9zM78.8 70C78.8 72.5 68.7 77.5 50 77.5S21.2 72.5 21.2 70V36.9C27.5 40.6 38.8 42.5 50 42.5S72.5 40.6 78.8 36.9zM78.8 30C78.8 32.5 68.7 37.5 50 37.5S21.2 32.5 21.2 30V26.9C27.5 30.6 38.8 32.5 50 32.5S72.5 30.6 78.8 26.9z" fill="black"></path><path class="" d="M44.5 57.8C44.8 56.9 45 56 45 55 45 50.9 41.6 47.5 37.5 47.5S30 50.9 30 55C30 56 30.2 56.9 30.5 57.8 27.4 58.6 25 61.5 25 65 25 69.1 28.4 72.5 32.5 72.5 34.4 72.5 36.2 71.8 37.5 70.6 38.8 71.8 40.6 72.5 42.5 72.5 46.6 72.5 50 69.1 50 65 50 61.5 47.6 58.6 44.5 57.8M32.5 67.5C31.1 67.5 30 66.4 30 65S31.1 62.5 32.5 62.5 35 63.6 35 65 33.9 67.5 32.5 67.5M37.5 57.5C36.1 57.5 35 56.4 35 55S36.1 52.5 37.5 52.5 40 53.6 40 55 38.9 57.5 37.5 57.5M42.5 67.5C41.1 67.5 40 66.4 40 65S41.1 62.5 42.5 62.5 45 63.6 45 65 43.9 67.5 42.5 67.5" fill="black"></path><path class="" d="M63.8 72.5C67.9 72.5 71.3 69.1 71.3 65S67.9 57.5 63.8 57.5 56.3 60.9 56.3 65 59.6 72.5 63.8 72.5M63.8 62.5C65.2 62.5 66.3 63.6 66.3 65S65.2 67.5 63.8 67.5 61.3 66.4 61.3 65 62.4 62.5 63.8 62.5" fill="black"></path><path class="" d="M32.5 22.5H37.5C38.9 22.5 40 21.4 40 20S38.9 17.5 37.5 17.5H32.5C31.1 17.5 30 18.6 30 20S31.1 22.5 32.5 22.5" fill="black"></path></svg></g></svg></g><g></g></svg></g></svg></g></svg></g><defs><mask></mask></defs><mask><g id="SvgjsG11734"><svg viewBox="0 0 320 360" height="360" width="320"><g><svg></svg></g><g><svg viewBox="0 0 320 360" height="360" width="320"><g><path transform="translate(-76.07486,-56.3133) scale(4.7215,4.7215)" d="M24.473 37.513l0.604-1.109c4.807-8.829 14.163-14.821 24.923-14.82 10.763 0 20.122 5.995 24.928 14.827l0.604 1.11 1.731-6.637 6.572 1.686-0.562-1.015c-6.478-11.702-18.949-19.628-33.273-19.628-14.324 0-26.794 7.926-33.274 19.628l-0.562 1.014 6.579-1.685zM50 12.927c13.521 0 25.324 7.262 31.785 18.085l-5.238-1.343-1.359 5.212c-5.129-8.559-14.483-14.297-25.188-14.297-10.701 0-20.053 5.735-25.182 14.289l-1.358-5.205-5.245 1.343c6.461-10.823 18.265-18.084 31.785-18.084zM75.527 62.587l-0.604 1.109c-4.807 8.83-14.163 14.821-24.923 14.821-10.763 0-20.122-5.994-24.928-14.827l-0.604-1.109-1.731 6.636-6.573-1.686 0.562 1.015c6.479 11.701 18.949 19.628 33.274 19.628 14.324 0 26.795-7.927 33.274-19.628l0.562-1.014-6.579 1.685zM50 87.174c-13.521 0-25.324-7.262-31.785-18.085l5.237 1.344 1.36-5.212c5.129 8.557 14.483 14.296 25.188 14.296 10.702 0 20.053-5.735 25.183-14.29l1.357 5.205 5.245-1.343c-6.461 10.822-18.264 18.085-31.785 18.085z" fill="black" fill-rule="nonzero" stroke="none" stroke-width="1" stroke-linecap="butt" stroke-linejoin="miter" stroke-miterlimit="10" stroke-dasharray="" stroke-dashoffset="0" font-family="none" font-weight="none" font-size="none" text-anchor="none" style="mix-blend-mode: normal"></path></g><g transform="matrix(1,0,0,1,120.3838939926221,90)"><svg viewBox="0 0 79.23221201475579 180" height="180" width="79.23221201475579"><g><svg viewBox="0 0 117.7997179125529 267.6177868202217" height="180" width="79.23221201475579"><g transform="matrix(1,0,0,1,0,87.61778682022171)"><svg viewBox="0 0 117.7997179125529 180" height="180" width="117.7997179125529"><g id="SvgjsG11733"><svg viewBox="0 0 117.7997179125529 180" height="180" width="117.7997179125529" id="SvgjsSvg11732"><g><svg viewBox="0 0 117.7997179125529 180" height="180" width="117.7997179125529"><g transform="matrix(1,0,0,1,0,0)"><svg width="117.7997179125529" viewBox="1.8 -34.65 23.2 35.449999999999996" height="180" data-palette-color="url(#ae5757ff-458f-46cc-ab68-f3fae3e97ad4)"><g class="wordmark-text-0" data-fill-palette-color="primary" id="SvgjsG11731"><path d="M25-34.65L25-10Q25-6.9 23.7-4.48 22.4-2.05 19.8-0.63 17.2 0.8 13.4 0.8L13.4 0.8Q7.7 0.8 4.75-2.15 1.8-5.1 1.8-10L1.8-10 1.8-34.65 9.65-34.65 9.65-10.35Q9.65-7.65 10.53-6.35 11.4-5.05 13.4-5.05L13.4-5.05Q15.4-5.05 16.28-6.35 17.15-7.65 17.15-10.35L17.15-10.35 17.15-34.65 25-34.65Z" fill="black"></path></g></svg></g></svg></g></svg></g></svg></g><g transform="matrix(1,0,0,1,40.699802538787026,0)"><svg viewBox="0 0 36.40011283497884 45.12410682022171" height="45.12410682022171" width="36.40011283497884"><g><svg xmlns="http://www.w3.org/2000/svg" xmlns:xlink="http://www.w3.org/1999/xlink" version="1.1" x="0" y="0" viewBox="13.7 5 72.6 90" xml:space="preserve" height="45.12410682022171" width="36.40011283497884" class="icon-icon-0" data-fill-palette-color="accent" id="SvgjsSvg11730"><path class="" d="M50 5C30 5 13.7 11.7 13.7 20V80C13.7 88.3 29.9 95 50 95S86.3 88.3 86.3 80V20C86.3 11.7 70 5 50 5M50 12.5C67.6 12.5 77.5 17.9 78.7 20.2 78.3 22.8 68.2 27.5 50 27.5S21.7 22.8 21.3 20.2C22.5 17.9 32.4 12.5 50 12.5M78.8 79.8C77.6 82.1 67.7 87.5 50 87.5S22.4 82.1 21.2 79.8V76.9C27.5 80.6 38.8 82.5 50 82.5S72.5 80.6 78.8 76.9zM78.8 70C78.8 72.5 68.7 77.5 50 77.5S21.2 72.5 21.2 70V36.9C27.5 40.6 38.8 42.5 50 42.5S72.5 40.6 78.8 36.9zM78.8 30C78.8 32.5 68.7 37.5 50 37.5S21.2 32.5 21.2 30V26.9C27.5 30.6 38.8 32.5 50 32.5S72.5 30.6 78.8 26.9z" fill="black"></path><path class="" d="M44.5 57.8C44.8 56.9 45 56 45 55 45 50.9 41.6 47.5 37.5 47.5S30 50.9 30 55C30 56 30.2 56.9 30.5 57.8 27.4 58.6 25 61.5 25 65 25 69.1 28.4 72.5 32.5 72.5 34.4 72.5 36.2 71.8 37.5 70.6 38.8 71.8 40.6 72.5 42.5 72.5 46.6 72.5 50 69.1 50 65 50 61.5 47.6 58.6 44.5 57.8M32.5 67.5C31.1 67.5 30 66.4 30 65S31.1 62.5 32.5 62.5 35 63.6 35 65 33.9 67.5 32.5 67.5M37.5 57.5C36.1 57.5 35 56.4 35 55S36.1 52.5 37.5 52.5 40 53.6 40 55 38.9 57.5 37.5 57.5M42.5 67.5C41.1 67.5 40 66.4 40 65S41.1 62.5 42.5 62.5 45 63.6 45 65 43.9 67.5 42.5 67.5" fill="black"></path><path class="" d="M63.8 72.5C67.9 72.5 71.3 69.1 71.3 65S67.9 57.5 63.8 57.5 56.3 60.9 56.3 65 59.6 72.5 63.8 72.5M63.8 62.5C65.2 62.5 66.3 63.6 66.3 65S65.2 67.5 63.8 67.5 61.3 66.4 61.3 65 62.4 62.5 63.8 62.5" fill="black"></path><path class="" d="M32.5 22.5H37.5C38.9 22.5 40 21.4 40 20S38.9 17.5 37.5 17.5H32.5C31.1 17.5 30 18.6 30 20S31.1 22.5 32.5 22.5" fill="black"></path></svg></g></svg></g><g></g></svg></g></svg></g></svg></g><defs><mask></mask></defs></svg><rect width="320" height="360" fill="black" stroke="none" visibility="hidden"></rect></g></mask></svg><rect width="320" height="360" fill="black" stroke="none" visibility="hidden"></rect></g></mask></svg><rect width="320" height="360" fill="black" stroke="none" visibility="hidden"></rect></g></mask><linearGradient x1="0" x2="1" y1="0.548" y2="0.55" id="784aa8ae-0304-4bc6-94a0-14b19ce89ab4"><stop stop-color="#ff6cab" offset="0"></stop><stop stop-color="#7366ff" offset="1"></stop></linearGradient></svg><rect width="320" height="360" fill="none" stroke="none" visibility="hidden"></rect></g></svg></g></svg>